<?xml version="1.0" encoding="utf-8"?>
<!-- Generator: Adobe Illustrator 27.2.0, SVG Export Plug-In . SVG Version: 6.00 Build 0)  -->
<!DOCTYPE svg PUBLIC "-//W3C//DTD SVG 1.1//EN" "http://www.w3.org/Graphics/SVG/1.1/DTD/svg11.dtd" [
	<!ENTITY ns_extend "http://ns.adobe.com/Extensibility/1.0/">
	<!ENTITY ns_ai "http://ns.adobe.com/AdobeIllustrator/10.0/">
	<!ENTITY ns_graphs "http://ns.adobe.com/Graphs/1.0/">
	<!ENTITY ns_vars "http://ns.adobe.com/Variables/1.0/">
	<!ENTITY ns_imrep "http://ns.adobe.com/ImageReplacement/1.0/">
	<!ENTITY ns_sfw "http://ns.adobe.com/SaveForWeb/1.0/">
	<!ENTITY ns_custom "http://ns.adobe.com/GenericCustomNamespace/1.0/">
	<!ENTITY ns_adobe_xpath "http://ns.adobe.com/XPath/1.0/">
]>
<svg version="1.1" id="Layer_1" xmlns:x="&ns_extend;" xmlns:i="&ns_ai;" xmlns:graph="&ns_graphs;"
	 xmlns="http://www.w3.org/2000/svg" xmlns:xlink="http://www.w3.org/1999/xlink" x="0px" y="0px" viewBox="0 0 100 100"
	 style="enable-background:new 0 0 100 100;" xml:space="preserve">
<style type="text/css">
	.st0{fill:#1773EA;}
</style>
<metadata>
	<sfw  xmlns="&ns_sfw;">
		<slices></slices>
		<sliceSourceBounds  bottomLeftOrigin="true" height="99.5" width="99.5" x="-10.5" y="-9.8"></sliceSourceBounds>
	</sfw>
</metadata>
<path id="Facebook-Icon-9imsd" class="st0" d="M50,0.2C22.5,0.2,0.2,22.5,0.2,50S22.5,99.8,50,99.8c27.5,0,49.8-22.3,49.8-49.8
	C99.7,22.5,77.5,0.3,50,0.2 M62.4,51.8h-8.1v28.9h-12V51.8h-5.7V41.5h5.7V35c0-4.7,2.2-12.1,12.1-12.1l8.9,0v9.9h-6.5
	c-1.3-0.1-2.5,1-2.6,2.3c0,0.2,0,0.3,0,0.5v6h9.1L62.4,51.8L62.4,51.8z"/>
</svg>
