<?xml version="1.0" encoding="UTF-8"?>
<svg id="Layer_1" data-name="Layer 1" xmlns="http://www.w3.org/2000/svg" xmlns:xlink="http://www.w3.org/1999/xlink" viewBox="0 0 91.66 80">
  <defs>
    <style>
      .cls-1 {
        fill: #fff;
      }

      .cls-2 {
        fill: #7babf7;
      }

      .cls-3 {
        fill: #709be0;
      }

      .cls-3, .cls-4 {
        fill-rule: evenodd;
      }

      .cls-4, .cls-5 {
        fill: #3c4ba6;
      }

      .cls-6 {
        fill: #4989f5;
      }

      .cls-7 {
        fill: url(#linear-gradient);
      }

      .cls-8 {
        fill: #3f51b5;
      }
    </style>
    <linearGradient id="linear-gradient" x1="-98.18" y1="320.65" x2="-98.15" y2="320.65" gradientTransform="translate(214542.33 528466.37) scale(2185.08 -1647.96)" gradientUnits="userSpaceOnUse">
      <stop offset=".03" stop-color="#4079d8"/>
      <stop offset="1" stop-color="#4989f5"/>
    </linearGradient>
  </defs>
  <g>
    <rect class="cls-6" x="4.6" y="20.03" width="80.2" height="59.97" rx="3.18" ry="3.18"/>
    <path class="cls-7" d="m80.7,19.58H8.62c-2.23,0-3.97,17.28-3.97,19.51l39.47,40.9h36.58c2.24,0,4.05-1.82,4.06-4.06V23.64c0-2.24-1.82-4.05-4.06-4.06Z"/>
    <path class="cls-5" d="m22.92,30.08h22.91V0h-19.48l-3.43,30.07Z"/>
    <path class="cls-2" d="m68.74,30.08h-22.91V0h19.48l3.43,30.07Zm16.06-24.37l.03.1s-.02-.07-.03-.1Z"/>
    <path class="cls-8" d="m84.83,5.8l-.03-.1c-.73-3.33-3.67-5.7-7.08-5.7h-12.41l3.43,30.08h22.91l-6.82-24.27Z"/>
    <path class="cls-2" d="m6.86,5.7l-.03.1s.02-.07.03-.1Z"/>
    <path class="cls-2" d="m6.83,5.8l.03-.1C7.58,2.37,10.53,0,13.93,0h12.41l-3.43,30.08H0L6.83,5.8Z"/>
  </g>
  <path class="cls-3" d="m22.96,30.07c0,6.32-5.13,11.45-11.45,11.45S.05,36.39.05,30.07h22.9Z"/>
  <path class="cls-4" d="m45.86,30.07c0,6.32-5.13,11.45-11.45,11.45s-11.45-5.13-11.45-11.45h22.9Z"/>
  <path class="cls-3" d="m68.76,30.07c0,6.32-5.13,11.45-11.45,11.45s-11.45-5.13-11.45-11.45h22.9Z"/>
  <path class="cls-4" d="m91.66,30.07c0,6.32-5.13,11.45-11.45,11.45s-11.45-5.13-11.45-11.45h22.9Z"/>
  <path class="cls-1" d="m80.21,61.09c-.04-.55-.11-1.04-.2-1.68h-12.49c0,1.75,0,3.65,0,5.4h7.24c-.31,1.65-1.26,3.1-2.65,4.04,0,0,0-.03,0-.03-.89.58-1.88.97-2.93,1.14-1.05.19-2.12.19-3.17-.01-1.06-.22-2.07-.66-2.96-1.28-1.31-.93-2.32-2.22-2.91-3.71-.04-.12-.09-.23-.13-.35h0s.01-.02.01-.02c-.57-1.67-.57-3.48,0-5.15.4-1.17,1.06-2.24,1.92-3.13,2.03-2.1,5.07-2.89,7.87-2.05,1.07.33,2.05.91,2.86,1.68l2.44-2.44c.43-.44.88-.86,1.29-1.31-1.24-1.15-2.69-2.05-4.28-2.65-2.89-1.05-6.04-1.07-8.94-.08-.1.03-.2.07-.3.11-3.13,1.18-5.71,3.49-7.22,6.47-.53,1.06-.92,2.18-1.16,3.34-1.38,6.87,2.81,13.64,9.58,15.45,2.21.59,4.57.58,6.8.07,2.03-.46,3.9-1.43,5.44-2.83,1.61-1.48,2.76-3.45,3.36-5.54.5-1.77.69-3.62.54-5.46h0Z"/>
</svg>