<?xml version="1.0" encoding="utf-8"?>
<!-- Generator: Adobe Illustrator 27.2.0, SVG Export Plug-In . SVG Version: 6.00 Build 0)  -->
<svg version="1.1" id="Layer_1" xmlns="http://www.w3.org/2000/svg" xmlns:xlink="http://www.w3.org/1999/xlink" x="0px" y="0px"
	 viewBox="0 0 32.4 44.7" style="enable-background:new 0 0 32.4 44.7;" xml:space="preserve">
<style type="text/css">
	.st0{fill:#6CD37D;stroke:#FFFFFF;stroke-width:0.25;stroke-miterlimit:10;}
	.st1{fill:#1A2551;stroke:#FFFFFF;stroke-width:0.25;stroke-miterlimit:10;}
	.st2{fill:#FFFFFF;}
</style>
<path class="st0" d="M16,38.2l2.3-8c0.5-1.7-0.8-3.5-2.6-3.5H9.8c-2.3,0-4.1-1.8-4.1-4.1V5.9H3.9c-2,0-3.7,1.6-3.7,3.7v16.3
	c0,2,1.6,3.7,3.7,3.7h5.2c1.6,0,2.8,1.6,2.3,3.1l-2.1,7.2c-0.7,2.3,1.1,4.7,3.5,4.7c1.3,0,2.5-0.7,3.1-1.8l0.6-1
	C15.9,40.8,15.6,39.5,16,38.2z"/>
<path class="st1" d="M28.1,0.2H9.8C7.6,0.2,5.7,2,5.7,4.3v18.3c0,2.3,1.8,4.1,4.1,4.1h5.8c1.8,0,3.1,1.7,2.6,3.5l-2.3,8
	c-0.8,2.6,1.2,5.2,3.9,5.2c1.4,0,2.8-0.8,3.5-2l8.2-13.8c0.4-0.6,0.6-1.4,0.6-2.1V4.3C32.2,2,30.4,0.2,28.1,0.2z M25,11.8L22.6,14
	c-0.2,0.1-0.2,0.3-0.2,0.6l0.7,3c0.1,0.5-0.4,0.9-0.8,0.6l-2.7-1.6c-0.2-0.1-0.4-0.1-0.6,0l-2.7,1.6c-0.4,0.3-0.9-0.1-0.8-0.6l0.7-3
	c0-0.2,0-0.4-0.2-0.6l-2.5-2.2c-0.4-0.3-0.2-0.9,0.3-1l3.3-0.3c0.2,0,0.4-0.2,0.5-0.3l1.2-2.8c0.2-0.5,0.8-0.5,1,0l1.2,2.8
	c0.1,0.2,0.3,0.3,0.5,0.3l3.3,0.3C25.2,10.9,25.4,11.5,25,11.8z"/>
<path class="st2" d="M25,11.8L22.6,14c-0.2,0.1-0.2,0.3-0.2,0.6l0.7,3c0.1,0.5-0.4,0.9-0.8,0.6l-2.7-1.6c-0.2-0.1-0.4-0.1-0.6,0
	l-2.7,1.6c-0.4,0.3-0.9-0.1-0.8-0.6l0.7-3c0-0.2,0-0.4-0.2-0.6l-2.5-2.2c-0.4-0.3-0.2-0.9,0.3-1l3.3-0.3c0.2,0,0.4-0.2,0.5-0.3
	l1.2-2.8c0.2-0.5,0.8-0.5,1,0l1.2,2.8c0.1,0.2,0.3,0.3,0.5,0.3l3.3,0.3C25.2,10.9,25.4,11.5,25,11.8z"/>
</svg>
